<svg width="174" height="197" viewBox="0 0 174 197" fill="none" xmlns="http://www.w3.org/2000/svg">
<path d="M51.8984 32.8377C52.2713 30.5037 54.9604 29.3506 56.8012 30.7356L95.0983 59.5494C97.4518 61.3201 96.1089 65.1724 93.1381 65.1724L74.5293 65.1724L50.2377 65.1727C48.3821 65.1727 46.9974 63.5158 47.2952 61.6518L51.8984 32.8377Z" fill="#83CD82"/>
<path d="M122.038 32.8377C121.665 30.5037 118.976 29.3506 117.136 30.7356L78.8385 59.5494C76.485 61.3201 77.8279 65.1724 80.7987 65.1724L99.4074 65.1724L123.699 65.1727C125.555 65.1727 126.939 63.5158 126.642 61.6518L122.038 32.8377Z" fill="#83CD82"/>
<path d="M83.9645 9.03462C84.8894 6.18965 88.9143 6.18966 89.8393 9.03463L104.914 55.3996C105.563 57.3954 104.075 59.4434 101.976 59.4434H71.8273C69.7287 59.4434 68.241 57.3954 68.8899 55.3996L83.9645 9.03462Z" fill="#83CD82"/>
<path d="M0 141.678C0 103.58 30.8844 72.6956 68.9823 72.6956H105.018C143.116 72.6956 174 103.58 174 141.678V170.911C174 185.127 162.476 196.651 148.26 196.651H25.7397C11.524 196.651 0 185.127 0 170.911V141.678Z" fill="#F1A960"/>
<ellipse cx="63.3902" cy="139.691" rx="5.85825" ry="13.2738" fill="#58565D"/>
<ellipse cx="109.191" cy="139.691" rx="5.85825" ry="13.2738" fill="#58565D"/>
</svg>
