<svg width="192" height="33" viewBox="0 0 192 33" fill="none" xmlns="http://www.w3.org/2000/svg">
<g opacity="0.7">
<mask id="path-1-outside-1_3066_3525" maskUnits="userSpaceOnUse" x="-1" y="-2" width="195" height="37" fill="black">
<rect fill="white" x="-1" y="-2" width="195" height="37"/>
<path d="M19.9705 4.73C20.1805 5.06 20.3605 5.51 20.5105 6.08C20.6905 6.62 20.7805 7.19 20.7805 7.79C20.7805 8.96 20.5255 9.8 20.0155 10.31C19.5355 10.79 18.8755 11.03 18.0355 11.03H8.58549V16.115H18.4405C18.6805 16.445 18.8755 16.88 19.0255 17.42C19.2055 17.96 19.2955 18.53 19.2955 19.13C19.2955 20.27 19.0405 21.095 18.5305 21.605C18.0505 22.085 17.3905 22.325 16.5505 22.325H8.67549V31.82C8.34549 31.91 7.82049 32 7.10049 32.09C6.41049 32.18 5.72049 32.225 5.03049 32.225C4.34049 32.225 3.72549 32.165 3.18549 32.045C2.67549 31.955 2.24049 31.775 1.88049 31.505C1.52049 31.235 1.25049 30.86 1.07049 30.38C0.890488 29.9 0.800489 29.27 0.800489 28.49V8.915C0.800489 7.625 1.17549 6.605 1.92549 5.855C2.67549 5.105 3.69549 4.73 4.98549 4.73H19.9705ZM30.8928 31.955C30.5928 32.045 30.1128 32.135 29.4528 32.225C28.8228 32.315 28.1628 32.36 27.4728 32.36C26.8128 32.36 26.2128 32.315 25.6728 32.225C25.1628 32.135 24.7278 31.955 24.3678 31.685C24.0078 31.415 23.7228 31.055 23.5128 30.605C23.3328 30.125 23.2428 29.51 23.2428 28.76V15.26C23.2428 14.57 23.3628 13.985 23.6028 13.505C23.8728 12.995 24.2478 12.545 24.7278 12.155C25.2078 11.765 25.7928 11.42 26.4828 11.12C27.2028 10.79 27.9678 10.505 28.7778 10.265C29.5878 10.025 30.4278 9.845 31.2978 9.725C32.1678 9.575 33.0378 9.5 33.9078 9.5C35.3478 9.5 36.4878 9.785 37.3278 10.355C38.1678 10.895 38.5878 11.795 38.5878 13.055C38.5878 13.475 38.5278 13.895 38.4078 14.315C38.2878 14.705 38.1378 15.065 37.9578 15.395C37.3278 15.395 36.6828 15.425 36.0228 15.485C35.3628 15.545 34.7178 15.635 34.0878 15.755C33.4578 15.875 32.8578 16.01 32.2878 16.16C31.7478 16.28 31.2828 16.43 30.8928 16.61V31.955ZM52.4738 32.72C50.7038 32.72 49.0538 32.48 47.5238 32C46.0238 31.49 44.7038 30.74 43.5638 29.75C42.4538 28.76 41.5688 27.515 40.9088 26.015C40.2788 24.515 39.9638 22.76 39.9638 20.75C39.9638 18.77 40.2788 17.075 40.9088 15.665C41.5688 14.225 42.4238 13.055 43.4738 12.155C44.5238 11.225 45.7238 10.55 47.0738 10.13C48.4238 9.68 49.8038 9.455 51.2138 9.455C52.8038 9.455 54.2438 9.695 55.5338 10.175C56.8538 10.655 57.9788 11.315 58.9088 12.155C59.8688 12.995 60.6038 14 61.1138 15.17C61.6538 16.34 61.9239 17.615 61.9239 18.995C61.9239 20.015 61.6388 20.795 61.0688 21.335C60.4988 21.875 59.7038 22.22 58.6838 22.37L47.5688 24.035C47.8988 25.025 48.5738 25.775 49.5938 26.285C50.6138 26.765 51.7838 27.005 53.1038 27.005C54.3338 27.005 55.4888 26.855 56.5688 26.555C57.6788 26.225 58.5788 25.85 59.2688 25.43C59.7488 25.73 60.1538 26.15 60.4838 26.69C60.8138 27.23 60.9788 27.8 60.9788 28.4C60.9788 29.75 60.3488 30.755 59.0888 31.415C58.1288 31.925 57.0488 32.27 55.8488 32.45C54.6488 32.63 53.5238 32.72 52.4738 32.72ZM51.2138 15.035C50.4938 15.035 49.8638 15.155 49.3238 15.395C48.8138 15.635 48.3938 15.95 48.0638 16.34C47.7338 16.7 47.4788 17.12 47.2988 17.6C47.1488 18.05 47.0588 18.515 47.0288 18.995L54.7238 17.735C54.6338 17.135 54.3038 16.535 53.7338 15.935C53.1638 15.335 52.3238 15.035 51.2138 15.035ZM77.1711 32.72C75.4011 32.72 73.7511 32.48 72.2211 32C70.7211 31.49 69.4011 30.74 68.2611 29.75C67.1511 28.76 66.2661 27.515 65.6061 26.015C64.9761 24.515 64.6611 22.76 64.6611 20.75C64.6611 18.77 64.9761 17.075 65.6061 15.665C66.2661 14.225 67.1211 13.055 68.1711 12.155C69.2211 11.225 70.4211 10.55 71.7711 10.13C73.1211 9.68 74.5011 9.455 75.9111 9.455C77.5011 9.455 78.9411 9.695 80.2311 10.175C81.5511 10.655 82.6761 11.315 83.6061 12.155C84.5661 12.995 85.3011 14 85.8111 15.17C86.3511 16.34 86.6211 17.615 86.6211 18.995C86.6211 20.015 86.3361 20.795 85.7661 21.335C85.1961 21.875 84.4011 22.22 83.3811 22.37L72.2661 24.035C72.5961 25.025 73.2711 25.775 74.2911 26.285C75.3111 26.765 76.4811 27.005 77.8011 27.005C79.0311 27.005 80.1861 26.855 81.2661 26.555C82.3761 26.225 83.2761 25.85 83.9661 25.43C84.4461 25.73 84.8511 26.15 85.1811 26.69C85.5111 27.23 85.6761 27.8 85.6761 28.4C85.6761 29.75 85.0461 30.755 83.7861 31.415C82.8261 31.925 81.7461 32.27 80.5461 32.45C79.3461 32.63 78.2211 32.72 77.1711 32.72ZM75.9111 15.035C75.1911 15.035 74.5611 15.155 74.0211 15.395C73.5111 15.635 73.0911 15.95 72.7611 16.34C72.4311 16.7 72.1761 17.12 71.9961 17.6C71.8461 18.05 71.7561 18.515 71.7261 18.995L79.4211 17.735C79.3311 17.135 79.0011 16.535 78.4311 15.935C77.8611 15.335 77.0211 15.035 75.9111 15.035ZM98.5384 26.375C98.9584 26.495 99.4984 26.585 100.158 26.645C100.818 26.675 101.448 26.69 102.048 26.69C103.248 26.69 104.238 26.45 105.018 25.97C105.828 25.46 106.233 24.68 106.233 23.63C106.233 22.64 105.903 21.935 105.243 21.515C104.583 21.095 103.578 20.885 102.228 20.885H98.5384V26.375ZM98.5384 15.395H101.823C103.113 15.395 104.043 15.155 104.613 14.675C105.213 14.195 105.513 13.49 105.513 12.56C105.513 11.75 105.168 11.105 104.478 10.625C103.818 10.145 102.813 9.905 101.463 9.905C101.013 9.905 100.488 9.92 99.8884 9.95C99.3184 9.98 98.8684 10.025 98.5384 10.085V15.395ZM101.463 32.72C100.953 32.72 100.353 32.705 99.6634 32.675C98.9734 32.645 98.2534 32.585 97.5034 32.495C96.7834 32.405 96.0634 32.285 95.3434 32.135C94.6234 32.015 93.9634 31.835 93.3634 31.595C91.7134 30.965 90.8884 29.87 90.8884 28.31V7.295C90.8884 6.665 91.0534 6.185 91.3834 5.855C91.7434 5.495 92.2234 5.21 92.8234 5C93.8434 4.64 95.1184 4.385 96.6484 4.235C98.1784 4.055 99.7534 3.965 101.373 3.965C105.213 3.965 108.168 4.61 110.238 5.9C112.308 7.19 113.343 9.185 113.343 11.885C113.343 13.235 112.953 14.405 112.173 15.395C111.393 16.355 110.343 17.06 109.023 17.51C110.523 17.93 111.768 18.695 112.758 19.805C113.778 20.915 114.288 22.31 114.288 23.99C114.288 26.96 113.178 29.165 110.958 30.605C108.768 32.015 105.603 32.72 101.463 32.72ZM117.985 4.055C117.985 2.915 118.36 1.955 119.11 1.175C119.89 0.394998 120.91 0.00499886 122.17 0.00499886C123.43 0.00499886 124.435 0.394998 125.185 1.175C125.965 1.955 126.355 2.915 126.355 4.055C126.355 5.195 125.965 6.155 125.185 6.935C124.435 7.715 123.43 8.105 122.17 8.105C120.91 8.105 119.89 7.715 119.11 6.935C118.36 6.155 117.985 5.195 117.985 4.055ZM125.995 31.955C125.665 32.015 125.17 32.09 124.51 32.18C123.88 32.3 123.235 32.36 122.575 32.36C121.915 32.36 121.315 32.315 120.775 32.225C120.265 32.135 119.83 31.955 119.47 31.685C119.11 31.415 118.825 31.055 118.615 30.605C118.435 30.125 118.345 29.51 118.345 28.76V10.445C118.675 10.385 119.155 10.31 119.785 10.22C120.445 10.1 121.105 10.04 121.765 10.04C122.425 10.04 123.01 10.085 123.52 10.175C124.06 10.265 124.51 10.445 124.87 10.715C125.23 10.985 125.5 11.36 125.68 11.84C125.89 12.29 125.995 12.89 125.995 13.64V31.955ZM138.515 24.485C138.515 25.265 138.755 25.82 139.235 26.15C139.745 26.48 140.45 26.645 141.35 26.645C141.8 26.645 142.265 26.615 142.745 26.555C143.225 26.465 143.645 26.36 144.005 26.24C144.275 26.57 144.5 26.945 144.68 27.365C144.89 27.755 144.995 28.235 144.995 28.805C144.995 29.945 144.56 30.875 143.69 31.595C142.85 32.315 141.35 32.675 139.19 32.675C136.55 32.675 134.51 32.075 133.07 30.875C131.66 29.675 130.955 27.725 130.955 25.025V5.765C131.285 5.675 131.75 5.585 132.35 5.495C132.98 5.375 133.64 5.315 134.33 5.315C135.65 5.315 136.67 5.555 137.39 6.035C138.14 6.485 138.515 7.46 138.515 8.96V11.84H144.41C144.59 12.17 144.755 12.59 144.905 13.1C145.085 13.58 145.175 14.12 145.175 14.72C145.175 15.77 144.935 16.535 144.455 17.015C144.005 17.465 143.39 17.69 142.61 17.69H138.515V24.485ZM160.184 32.72C158.414 32.72 156.764 32.48 155.234 32C153.734 31.49 152.414 30.74 151.274 29.75C150.164 28.76 149.279 27.515 148.619 26.015C147.989 24.515 147.674 22.76 147.674 20.75C147.674 18.77 147.989 17.075 148.619 15.665C149.279 14.225 150.134 13.055 151.184 12.155C152.234 11.225 153.434 10.55 154.784 10.13C156.134 9.68 157.514 9.455 158.924 9.455C160.514 9.455 161.954 9.695 163.244 10.175C164.564 10.655 165.689 11.315 166.619 12.155C167.579 12.995 168.314 14 168.824 15.17C169.364 16.34 169.634 17.615 169.634 18.995C169.634 20.015 169.349 20.795 168.779 21.335C168.209 21.875 167.414 22.22 166.394 22.37L155.279 24.035C155.609 25.025 156.284 25.775 157.304 26.285C158.324 26.765 159.494 27.005 160.814 27.005C162.044 27.005 163.199 26.855 164.279 26.555C165.389 26.225 166.289 25.85 166.979 25.43C167.459 25.73 167.864 26.15 168.194 26.69C168.524 27.23 168.689 27.8 168.689 28.4C168.689 29.75 168.059 30.755 166.799 31.415C165.839 31.925 164.759 32.27 163.559 32.45C162.359 32.63 161.234 32.72 160.184 32.72ZM158.924 15.035C158.204 15.035 157.574 15.155 157.034 15.395C156.524 15.635 156.104 15.95 155.774 16.34C155.444 16.7 155.189 17.12 155.009 17.6C154.859 18.05 154.769 18.515 154.739 18.995L162.434 17.735C162.344 17.135 162.014 16.535 161.444 15.935C160.874 15.335 160.034 15.035 158.924 15.035ZM191.766 25.475C191.766 27.755 190.911 29.54 189.201 30.83C187.491 32.12 184.971 32.765 181.641 32.765C180.381 32.765 179.211 32.675 178.131 32.495C177.051 32.315 176.121 32.045 175.341 31.685C174.591 31.295 173.991 30.815 173.541 30.245C173.121 29.675 172.911 29 172.911 28.22C172.911 27.5 173.061 26.9 173.361 26.42C173.661 25.91 174.021 25.49 174.441 25.16C175.311 25.64 176.301 26.075 177.411 26.465C178.551 26.825 179.856 27.005 181.326 27.005C182.256 27.005 182.961 26.87 183.441 26.6C183.951 26.33 184.206 25.97 184.206 25.52C184.206 25.1 184.026 24.77 183.666 24.53C183.306 24.29 182.706 24.095 181.866 23.945L180.516 23.675C177.906 23.165 175.956 22.37 174.666 21.29C173.406 20.18 172.776 18.605 172.776 16.565C172.776 15.455 173.016 14.45 173.496 13.55C173.976 12.65 174.651 11.9 175.521 11.3C176.391 10.7 177.426 10.235 178.626 9.905C179.856 9.575 181.206 9.41 182.676 9.41C183.786 9.41 184.821 9.5 185.781 9.68C186.771 9.83 187.626 10.07 188.346 10.4C189.066 10.73 189.636 11.165 190.056 11.705C190.476 12.215 190.686 12.83 190.686 13.55C190.686 14.24 190.551 14.84 190.281 15.35C190.041 15.83 189.726 16.235 189.336 16.565C189.096 16.415 188.736 16.265 188.256 16.115C187.776 15.935 187.251 15.785 186.681 15.665C186.111 15.515 185.526 15.395 184.926 15.305C184.356 15.215 183.831 15.17 183.351 15.17C182.361 15.17 181.596 15.29 181.056 15.53C180.516 15.74 180.246 16.085 180.246 16.565C180.246 16.895 180.396 17.165 180.696 17.375C180.996 17.585 181.566 17.78 182.406 17.96L183.801 18.275C186.681 18.935 188.721 19.85 189.921 21.02C191.151 22.16 191.766 23.645 191.766 25.475Z"/>
</mask>
<path d="M19.9705 4.73C20.1805 5.06 20.3605 5.51 20.5105 6.08C20.6905 6.62 20.7805 7.19 20.7805 7.79C20.7805 8.96 20.5255 9.8 20.0155 10.31C19.5355 10.79 18.8755 11.03 18.0355 11.03H8.58549V16.115H18.4405C18.6805 16.445 18.8755 16.88 19.0255 17.42C19.2055 17.96 19.2955 18.53 19.2955 19.13C19.2955 20.27 19.0405 21.095 18.5305 21.605C18.0505 22.085 17.3905 22.325 16.5505 22.325H8.67549V31.82C8.34549 31.91 7.82049 32 7.10049 32.09C6.41049 32.18 5.72049 32.225 5.03049 32.225C4.34049 32.225 3.72549 32.165 3.18549 32.045C2.67549 31.955 2.24049 31.775 1.88049 31.505C1.52049 31.235 1.25049 30.86 1.07049 30.38C0.890488 29.9 0.800489 29.27 0.800489 28.49V8.915C0.800489 7.625 1.17549 6.605 1.92549 5.855C2.67549 5.105 3.69549 4.73 4.98549 4.73H19.9705ZM30.8928 31.955C30.5928 32.045 30.1128 32.135 29.4528 32.225C28.8228 32.315 28.1628 32.36 27.4728 32.36C26.8128 32.36 26.2128 32.315 25.6728 32.225C25.1628 32.135 24.7278 31.955 24.3678 31.685C24.0078 31.415 23.7228 31.055 23.5128 30.605C23.3328 30.125 23.2428 29.51 23.2428 28.76V15.26C23.2428 14.57 23.3628 13.985 23.6028 13.505C23.8728 12.995 24.2478 12.545 24.7278 12.155C25.2078 11.765 25.7928 11.42 26.4828 11.12C27.2028 10.79 27.9678 10.505 28.7778 10.265C29.5878 10.025 30.4278 9.845 31.2978 9.725C32.1678 9.575 33.0378 9.5 33.9078 9.5C35.3478 9.5 36.4878 9.785 37.3278 10.355C38.1678 10.895 38.5878 11.795 38.5878 13.055C38.5878 13.475 38.5278 13.895 38.4078 14.315C38.2878 14.705 38.1378 15.065 37.9578 15.395C37.3278 15.395 36.6828 15.425 36.0228 15.485C35.3628 15.545 34.7178 15.635 34.0878 15.755C33.4578 15.875 32.8578 16.01 32.2878 16.16C31.7478 16.28 31.2828 16.43 30.8928 16.61V31.955ZM52.4738 32.72C50.7038 32.72 49.0538 32.48 47.5238 32C46.0238 31.49 44.7038 30.74 43.5638 29.75C42.4538 28.76 41.5688 27.515 40.9088 26.015C40.2788 24.515 39.9638 22.76 39.9638 20.75C39.9638 18.77 40.2788 17.075 40.9088 15.665C41.5688 14.225 42.4238 13.055 43.4738 12.155C44.5238 11.225 45.7238 10.55 47.0738 10.13C48.4238 9.68 49.8038 9.455 51.2138 9.455C52.8038 9.455 54.2438 9.695 55.5338 10.175C56.8538 10.655 57.9788 11.315 58.9088 12.155C59.8688 12.995 60.6038 14 61.1138 15.17C61.6538 16.34 61.9239 17.615 61.9239 18.995C61.9239 20.015 61.6388 20.795 61.0688 21.335C60.4988 21.875 59.7038 22.22 58.6838 22.37L47.5688 24.035C47.8988 25.025 48.5738 25.775 49.5938 26.285C50.6138 26.765 51.7838 27.005 53.1038 27.005C54.3338 27.005 55.4888 26.855 56.5688 26.555C57.6788 26.225 58.5788 25.85 59.2688 25.43C59.7488 25.73 60.1538 26.15 60.4838 26.69C60.8138 27.23 60.9788 27.8 60.9788 28.4C60.9788 29.75 60.3488 30.755 59.0888 31.415C58.1288 31.925 57.0488 32.27 55.8488 32.45C54.6488 32.63 53.5238 32.72 52.4738 32.72ZM51.2138 15.035C50.4938 15.035 49.8638 15.155 49.3238 15.395C48.8138 15.635 48.3938 15.95 48.0638 16.34C47.7338 16.7 47.4788 17.12 47.2988 17.6C47.1488 18.05 47.0588 18.515 47.0288 18.995L54.7238 17.735C54.6338 17.135 54.3038 16.535 53.7338 15.935C53.1638 15.335 52.3238 15.035 51.2138 15.035ZM77.1711 32.72C75.4011 32.72 73.7511 32.48 72.2211 32C70.7211 31.49 69.4011 30.74 68.2611 29.75C67.1511 28.76 66.2661 27.515 65.6061 26.015C64.9761 24.515 64.6611 22.76 64.6611 20.75C64.6611 18.77 64.9761 17.075 65.6061 15.665C66.2661 14.225 67.1211 13.055 68.1711 12.155C69.2211 11.225 70.4211 10.55 71.7711 10.13C73.1211 9.68 74.5011 9.455 75.9111 9.455C77.5011 9.455 78.9411 9.695 80.2311 10.175C81.5511 10.655 82.6761 11.315 83.6061 12.155C84.5661 12.995 85.3011 14 85.8111 15.17C86.3511 16.34 86.6211 17.615 86.6211 18.995C86.6211 20.015 86.3361 20.795 85.7661 21.335C85.1961 21.875 84.4011 22.22 83.3811 22.37L72.2661 24.035C72.5961 25.025 73.2711 25.775 74.2911 26.285C75.3111 26.765 76.4811 27.005 77.8011 27.005C79.0311 27.005 80.1861 26.855 81.2661 26.555C82.3761 26.225 83.2761 25.85 83.9661 25.43C84.4461 25.73 84.8511 26.15 85.1811 26.69C85.5111 27.23 85.6761 27.8 85.6761 28.4C85.6761 29.75 85.0461 30.755 83.7861 31.415C82.8261 31.925 81.7461 32.27 80.5461 32.45C79.3461 32.63 78.2211 32.72 77.1711 32.72ZM75.9111 15.035C75.1911 15.035 74.5611 15.155 74.0211 15.395C73.5111 15.635 73.0911 15.95 72.7611 16.34C72.4311 16.7 72.1761 17.12 71.9961 17.6C71.8461 18.05 71.7561 18.515 71.7261 18.995L79.4211 17.735C79.3311 17.135 79.0011 16.535 78.4311 15.935C77.8611 15.335 77.0211 15.035 75.9111 15.035ZM98.5384 26.375C98.9584 26.495 99.4984 26.585 100.158 26.645C100.818 26.675 101.448 26.69 102.048 26.69C103.248 26.69 104.238 26.45 105.018 25.97C105.828 25.46 106.233 24.68 106.233 23.63C106.233 22.64 105.903 21.935 105.243 21.515C104.583 21.095 103.578 20.885 102.228 20.885H98.5384V26.375ZM98.5384 15.395H101.823C103.113 15.395 104.043 15.155 104.613 14.675C105.213 14.195 105.513 13.49 105.513 12.56C105.513 11.75 105.168 11.105 104.478 10.625C103.818 10.145 102.813 9.905 101.463 9.905C101.013 9.905 100.488 9.92 99.8884 9.95C99.3184 9.98 98.8684 10.025 98.5384 10.085V15.395ZM101.463 32.72C100.953 32.72 100.353 32.705 99.6634 32.675C98.9734 32.645 98.2534 32.585 97.5034 32.495C96.7834 32.405 96.0634 32.285 95.3434 32.135C94.6234 32.015 93.9634 31.835 93.3634 31.595C91.7134 30.965 90.8884 29.87 90.8884 28.31V7.295C90.8884 6.665 91.0534 6.185 91.3834 5.855C91.7434 5.495 92.2234 5.21 92.8234 5C93.8434 4.64 95.1184 4.385 96.6484 4.235C98.1784 4.055 99.7534 3.965 101.373 3.965C105.213 3.965 108.168 4.61 110.238 5.9C112.308 7.19 113.343 9.185 113.343 11.885C113.343 13.235 112.953 14.405 112.173 15.395C111.393 16.355 110.343 17.06 109.023 17.51C110.523 17.93 111.768 18.695 112.758 19.805C113.778 20.915 114.288 22.31 114.288 23.99C114.288 26.96 113.178 29.165 110.958 30.605C108.768 32.015 105.603 32.72 101.463 32.72ZM117.985 4.055C117.985 2.915 118.36 1.955 119.11 1.175C119.89 0.394998 120.91 0.00499886 122.17 0.00499886C123.43 0.00499886 124.435 0.394998 125.185 1.175C125.965 1.955 126.355 2.915 126.355 4.055C126.355 5.195 125.965 6.155 125.185 6.935C124.435 7.715 123.43 8.105 122.17 8.105C120.91 8.105 119.89 7.715 119.11 6.935C118.36 6.155 117.985 5.195 117.985 4.055ZM125.995 31.955C125.665 32.015 125.17 32.09 124.51 32.18C123.88 32.3 123.235 32.36 122.575 32.36C121.915 32.36 121.315 32.315 120.775 32.225C120.265 32.135 119.83 31.955 119.47 31.685C119.11 31.415 118.825 31.055 118.615 30.605C118.435 30.125 118.345 29.51 118.345 28.76V10.445C118.675 10.385 119.155 10.31 119.785 10.22C120.445 10.1 121.105 10.04 121.765 10.04C122.425 10.04 123.01 10.085 123.52 10.175C124.06 10.265 124.51 10.445 124.87 10.715C125.23 10.985 125.5 11.36 125.68 11.84C125.89 12.29 125.995 12.89 125.995 13.64V31.955ZM138.515 24.485C138.515 25.265 138.755 25.82 139.235 26.15C139.745 26.48 140.45 26.645 141.35 26.645C141.8 26.645 142.265 26.615 142.745 26.555C143.225 26.465 143.645 26.36 144.005 26.24C144.275 26.57 144.5 26.945 144.68 27.365C144.89 27.755 144.995 28.235 144.995 28.805C144.995 29.945 144.56 30.875 143.69 31.595C142.85 32.315 141.35 32.675 139.19 32.675C136.55 32.675 134.51 32.075 133.07 30.875C131.66 29.675 130.955 27.725 130.955 25.025V5.765C131.285 5.675 131.75 5.585 132.35 5.495C132.98 5.375 133.64 5.315 134.33 5.315C135.65 5.315 136.67 5.555 137.39 6.035C138.14 6.485 138.515 7.46 138.515 8.96V11.84H144.41C144.59 12.17 144.755 12.59 144.905 13.1C145.085 13.58 145.175 14.12 145.175 14.72C145.175 15.77 144.935 16.535 144.455 17.015C144.005 17.465 143.39 17.69 142.61 17.69H138.515V24.485ZM160.184 32.72C158.414 32.72 156.764 32.48 155.234 32C153.734 31.49 152.414 30.74 151.274 29.75C150.164 28.76 149.279 27.515 148.619 26.015C147.989 24.515 147.674 22.76 147.674 20.75C147.674 18.77 147.989 17.075 148.619 15.665C149.279 14.225 150.134 13.055 151.184 12.155C152.234 11.225 153.434 10.55 154.784 10.13C156.134 9.68 157.514 9.455 158.924 9.455C160.514 9.455 161.954 9.695 163.244 10.175C164.564 10.655 165.689 11.315 166.619 12.155C167.579 12.995 168.314 14 168.824 15.17C169.364 16.34 169.634 17.615 169.634 18.995C169.634 20.015 169.349 20.795 168.779 21.335C168.209 21.875 167.414 22.22 166.394 22.37L155.279 24.035C155.609 25.025 156.284 25.775 157.304 26.285C158.324 26.765 159.494 27.005 160.814 27.005C162.044 27.005 163.199 26.855 164.279 26.555C165.389 26.225 166.289 25.85 166.979 25.43C167.459 25.73 167.864 26.15 168.194 26.69C168.524 27.23 168.689 27.8 168.689 28.4C168.689 29.75 168.059 30.755 166.799 31.415C165.839 31.925 164.759 32.27 163.559 32.45C162.359 32.63 161.234 32.72 160.184 32.72ZM158.924 15.035C158.204 15.035 157.574 15.155 157.034 15.395C156.524 15.635 156.104 15.95 155.774 16.34C155.444 16.7 155.189 17.12 155.009 17.6C154.859 18.05 154.769 18.515 154.739 18.995L162.434 17.735C162.344 17.135 162.014 16.535 161.444 15.935C160.874 15.335 160.034 15.035 158.924 15.035ZM191.766 25.475C191.766 27.755 190.911 29.54 189.201 30.83C187.491 32.12 184.971 32.765 181.641 32.765C180.381 32.765 179.211 32.675 178.131 32.495C177.051 32.315 176.121 32.045 175.341 31.685C174.591 31.295 173.991 30.815 173.541 30.245C173.121 29.675 172.911 29 172.911 28.22C172.911 27.5 173.061 26.9 173.361 26.42C173.661 25.91 174.021 25.49 174.441 25.16C175.311 25.64 176.301 26.075 177.411 26.465C178.551 26.825 179.856 27.005 181.326 27.005C182.256 27.005 182.961 26.87 183.441 26.6C183.951 26.33 184.206 25.97 184.206 25.52C184.206 25.1 184.026 24.77 183.666 24.53C183.306 24.29 182.706 24.095 181.866 23.945L180.516 23.675C177.906 23.165 175.956 22.37 174.666 21.29C173.406 20.18 172.776 18.605 172.776 16.565C172.776 15.455 173.016 14.45 173.496 13.55C173.976 12.65 174.651 11.9 175.521 11.3C176.391 10.7 177.426 10.235 178.626 9.905C179.856 9.575 181.206 9.41 182.676 9.41C183.786 9.41 184.821 9.5 185.781 9.68C186.771 9.83 187.626 10.07 188.346 10.4C189.066 10.73 189.636 11.165 190.056 11.705C190.476 12.215 190.686 12.83 190.686 13.55C190.686 14.24 190.551 14.84 190.281 15.35C190.041 15.83 189.726 16.235 189.336 16.565C189.096 16.415 188.736 16.265 188.256 16.115C187.776 15.935 187.251 15.785 186.681 15.665C186.111 15.515 185.526 15.395 184.926 15.305C184.356 15.215 183.831 15.17 183.351 15.17C182.361 15.17 181.596 15.29 181.056 15.53C180.516 15.74 180.246 16.085 180.246 16.565C180.246 16.895 180.396 17.165 180.696 17.375C180.996 17.585 181.566 17.78 182.406 17.96L183.801 18.275C186.681 18.935 188.721 19.85 189.921 21.02C191.151 22.16 191.766 23.645 191.766 25.475Z" fill="#FFFCFA"/>
<path d="M19.9705 4.73L21.236 3.92469L20.7939 3.23H19.9705V4.73ZM20.5105 6.08L19.0599 6.46174L19.0722 6.50848L19.0875 6.55434L20.5105 6.08ZM8.58549 11.03V9.53H7.08549V11.03H8.58549ZM8.58549 16.115H7.08549V17.615H8.58549V16.115ZM18.4405 16.115L19.6536 15.2327L19.2043 14.615H18.4405V16.115ZM19.0255 17.42L17.5802 17.8215L17.5904 17.8582L17.6025 17.8943L19.0255 17.42ZM18.5305 21.605L19.5911 22.6657L18.5305 21.605ZM8.67549 22.325V20.825H7.17549V22.325H8.67549ZM8.67549 31.82L9.07017 33.2671L10.1755 32.9657V31.82H8.67549ZM7.10049 32.09L6.91443 30.6016L6.90648 30.6026L7.10049 32.09ZM3.18549 32.045L3.51088 30.5807L3.47867 30.5736L3.44617 30.5678L3.18549 32.045ZM1.88049 31.505L0.980488 32.705L1.88049 31.505ZM1.07049 30.38L-0.334007 30.9067H-0.334003L1.07049 30.38ZM18.705 5.53531C18.801 5.68616 18.9314 5.97372 19.0599 6.46174L21.9611 5.69826C21.7895 5.04628 21.56 4.43384 21.236 3.92469L18.705 5.53531ZM19.0875 6.55434C19.2138 6.93328 19.2805 7.34245 19.2805 7.79H22.2805C22.2805 7.03755 22.1672 6.30671 21.9335 5.60566L19.0875 6.55434ZM19.2805 7.79C19.2805 8.79898 19.0515 9.15265 18.9548 9.24934L21.0761 11.3707C21.9995 10.4474 22.2805 9.12102 22.2805 7.79H19.2805ZM18.9548 9.24934C18.8198 9.38438 18.5778 9.53 18.0355 9.53V12.53C19.1732 12.53 20.2512 12.1956 21.0761 11.3707L18.9548 9.24934ZM18.0355 9.53H8.58549V12.53H18.0355V9.53ZM7.08549 11.03V16.115H10.0855V11.03H7.08549ZM8.58549 17.615H18.4405V14.615H8.58549V17.615ZM17.2274 16.9973C17.3305 17.1391 17.4615 17.3942 17.5802 17.8215L20.4708 17.0185C20.2894 16.3658 20.0304 15.7509 19.6536 15.2327L17.2274 16.9973ZM17.6025 17.8943C17.7288 18.2733 17.7955 18.6824 17.7955 19.13H20.7955C20.7955 18.3775 20.6822 17.6467 20.4485 16.9457L17.6025 17.8943ZM17.7955 19.13C17.7955 20.0956 17.5724 20.4417 17.4698 20.5443L19.5911 22.6657C20.5085 21.7483 20.7955 20.4444 20.7955 19.13H17.7955ZM17.4698 20.5443C17.3348 20.6794 17.0928 20.825 16.5505 20.825V23.825C17.6882 23.825 18.7662 23.4906 19.5911 22.6657L17.4698 20.5443ZM16.5505 20.825H8.67549V23.825H16.5505V20.825ZM7.17549 22.325V31.82H10.1755V22.325H7.17549ZM8.28082 30.3729C8.05979 30.4331 7.6239 30.5129 6.91444 30.6016L7.28654 33.5784C8.01707 33.4871 8.63119 33.3869 9.07017 33.2671L8.28082 30.3729ZM6.90648 30.6026C6.28026 30.6843 5.65507 30.725 5.03049 30.725V33.725C5.78591 33.725 6.54071 33.6757 7.29449 33.5774L6.90648 30.6026ZM5.03049 30.725C4.42429 30.725 3.92162 30.672 3.51088 30.5807L2.86009 33.5093C3.52935 33.658 4.25669 33.725 5.03049 33.725V30.725ZM3.44617 30.5678C3.13298 30.5126 2.92551 30.4138 2.78049 30.305L0.980488 32.705C1.55547 33.1362 2.218 33.3974 2.92481 33.5222L3.44617 30.5678ZM2.78049 30.305C2.6801 30.2297 2.56885 30.1036 2.47498 29.8533L-0.334003 30.9067C-0.0678749 31.6164 0.360882 32.2403 0.980488 32.705L2.78049 30.305ZM2.47498 29.8533C2.38212 29.6057 2.30049 29.1742 2.30049 28.49H-0.699512C-0.699512 29.3658 -0.601147 30.1943 -0.334007 30.9067L2.47498 29.8533ZM2.30049 28.49V8.915H-0.699512V28.49H2.30049ZM2.30049 8.915C2.30049 7.93115 2.57625 7.32556 2.98615 6.91566L0.86483 4.79434C-0.225273 5.88444 -0.699512 7.31885 -0.699512 8.915H2.30049ZM2.98615 6.91566C3.39605 6.50576 4.00164 6.23 4.98549 6.23V3.23C3.38934 3.23 1.95493 3.70424 0.86483 4.79434L2.98615 6.91566ZM4.98549 6.23H19.9705V3.23H4.98549V6.23ZM30.8928 31.955L31.3239 33.3917L32.3928 33.071V31.955H30.8928ZM29.4528 32.225L29.2502 30.7387L29.2407 30.7401L29.4528 32.225ZM25.6728 32.225L25.4122 33.7022L25.4192 33.7034L25.4262 33.7046L25.6728 32.225ZM24.3678 31.685L25.2678 30.485L24.3678 31.685ZM23.5128 30.605L22.1083 31.1317L22.1289 31.1864L22.1536 31.2393L23.5128 30.605ZM23.6028 13.505L22.2772 12.8032L22.269 12.8186L22.2612 12.8342L23.6028 13.505ZM24.7278 12.155L25.6737 13.3192V13.3192L24.7278 12.155ZM26.4828 11.12L27.0809 12.4956L27.0944 12.4897L27.1078 12.4836L26.4828 11.12ZM28.7778 10.265L29.204 11.7032V11.7032L28.7778 10.265ZM31.2978 9.725L31.5028 11.2109L31.5278 11.2075L31.5527 11.2032L31.2978 9.725ZM37.3278 10.355L36.4856 11.5962L36.501 11.6067L36.5167 11.6168L37.3278 10.355ZM38.4078 14.315L39.8415 14.7561L39.846 14.7416L39.8501 14.7271L38.4078 14.315ZM37.9578 15.395V16.895H38.8483L39.2747 16.1133L37.9578 15.395ZM36.0228 15.485L36.1586 16.9788L36.0228 15.485ZM34.0878 15.755L33.8072 14.2815V14.2815L34.0878 15.755ZM32.2878 16.16L32.6132 17.6243L32.6415 17.618L32.6696 17.6106L32.2878 16.16ZM30.8928 16.61L30.2642 15.2481L29.3928 15.6503V16.61H30.8928ZM30.4618 30.5183C30.2809 30.5725 29.8989 30.6503 29.2502 30.7388L29.6555 33.7112C30.3268 33.6197 30.9048 33.5175 31.3239 33.3917L30.4618 30.5183ZM29.2407 30.7401C28.6866 30.8192 28.0977 30.86 27.4728 30.86V33.86C28.2279 33.86 28.9591 33.8108 29.665 33.7099L29.2407 30.7401ZM27.4728 30.86C26.8792 30.86 26.3634 30.8194 25.9194 30.7454L25.4262 33.7046C26.0623 33.8106 26.7464 33.86 27.4728 33.86V30.86ZM25.9335 30.7478C25.6203 30.6926 25.4129 30.5938 25.2678 30.485L23.4678 32.885C24.0428 33.3162 24.7053 33.5774 25.4122 33.7022L25.9335 30.7478ZM25.2678 30.485C25.1249 30.3778 24.9888 30.2208 24.8721 29.9707L22.1536 31.2393C22.4568 31.8892 22.8908 32.4522 23.4678 32.885L25.2678 30.485ZM24.9173 30.0783C24.8225 29.8255 24.7428 29.4059 24.7428 28.76H21.7428C21.7428 29.6141 21.8432 30.4245 22.1083 31.1317L24.9173 30.0783ZM24.7428 28.76V15.26H21.7428V28.76H24.7428ZM24.7428 15.26C24.7428 14.7385 24.834 14.3967 24.9445 14.1758L22.2612 12.8342C21.8916 13.5733 21.7428 14.4015 21.7428 15.26H24.7428ZM24.9285 14.2068C25.0976 13.8874 25.3387 13.5914 25.6737 13.3192L23.7819 10.9908C23.1569 11.4986 22.648 12.1026 22.2772 12.8032L24.9285 14.2068ZM25.6737 13.3192C26.028 13.0313 26.4899 12.7525 27.0809 12.4956L25.8847 9.74439C25.0957 10.0874 24.3877 10.4987 23.7819 10.9908L25.6737 13.3192ZM27.1078 12.4836C27.7593 12.185 28.4575 11.9244 29.204 11.7032L28.3517 8.8268C27.4782 9.08561 26.6464 9.39499 25.8578 9.7564L27.1078 12.4836ZM29.204 11.7032C29.9388 11.4855 30.7047 11.321 31.5028 11.2109L31.0929 8.23907C30.151 8.36898 29.2369 8.56452 28.3517 8.8268L29.204 11.7032ZM31.5527 11.2032C32.3398 11.0675 33.1245 11 33.9078 11V8C32.9512 8 31.9959 8.08251 31.043 8.24681L31.5527 11.2032ZM33.9078 11C35.1682 11 35.9781 11.2518 36.4856 11.5962L38.1701 9.11378C36.9976 8.31817 35.5275 8 33.9078 8V11ZM36.5167 11.6168C36.8135 11.8076 37.0878 12.1534 37.0878 13.055H40.0878C40.0878 11.4366 39.5222 9.98244 38.139 9.09323L36.5167 11.6168ZM37.0878 13.055C37.0878 13.3301 37.0488 13.6115 36.9655 13.9029L39.8501 14.7271C40.0069 14.1785 40.0878 13.6199 40.0878 13.055H37.0878ZM36.9742 13.8739C36.8812 14.1759 36.769 14.4421 36.641 14.6767L39.2747 16.1133C39.5067 15.6879 39.6944 15.2341 39.8415 14.7561L36.9742 13.8739ZM37.9578 13.895C37.2802 13.895 36.5899 13.9273 35.887 13.9912L36.1586 16.9788C36.7758 16.9227 37.3754 16.895 37.9578 16.895V13.895ZM35.887 13.9912C35.18 14.0554 34.4867 14.1521 33.8072 14.2815L34.3685 17.2285C34.949 17.1179 35.5456 17.0346 36.1586 16.9788L35.887 13.9912ZM33.8072 14.2815C33.1461 14.4074 32.5123 14.5499 31.9061 14.7094L32.6696 17.6106C33.2034 17.4701 33.7695 17.3426 34.3685 17.2285L33.8072 14.2815ZM31.9624 14.6957C31.3462 14.8327 30.7745 15.0126 30.2642 15.2481L31.5214 17.9719C31.7912 17.8474 32.1495 17.7273 32.6132 17.6243L31.9624 14.6957ZM29.3928 16.61V31.955H32.3928V16.61H29.3928ZM47.5238 32L47.041 33.4202L47.0579 33.4259L47.0748 33.4312L47.5238 32ZM43.5639 29.75L42.5654 30.8694L42.5728 30.876L42.5803 30.8825L43.5639 29.75ZM40.9088 26.015L39.5259 26.5958L39.5308 26.6075L39.5359 26.6191L40.9088 26.015ZM40.9088 15.665L39.5452 15.04L39.5423 15.0465L39.5393 15.0531L40.9088 15.665ZM43.4738 12.155L44.45 13.2939L44.4593 13.286L44.4684 13.2779L43.4738 12.155ZM47.0738 10.13L47.5194 11.5623L47.5339 11.5578L47.5482 11.553L47.0738 10.13ZM55.5339 10.175L55.0107 11.5809L55.0212 11.5847L55.5339 10.175ZM58.9089 12.155L57.9034 13.2682L57.9122 13.2761L57.9211 13.2839L58.9089 12.155ZM61.1139 15.17L59.7388 15.7694L59.7452 15.7841L59.7519 15.7986L61.1139 15.17ZM61.0688 21.335L60.0372 20.2461V20.2461L61.0688 21.335ZM58.6838 22.37L58.4656 20.886L58.4616 20.8866L58.6838 22.37ZM47.5688 24.035L47.3466 22.5516L45.5814 22.816L46.1458 24.5093L47.5688 24.035ZM49.5938 26.285L48.923 27.6266L48.939 27.6346L48.9552 27.6422L49.5938 26.285ZM56.5688 26.555L56.9703 28.0003L56.9833 27.9967L56.9963 27.9928L56.5688 26.555ZM59.2688 25.43L60.0639 24.158L59.2793 23.6676L58.4889 24.1487L59.2688 25.43ZM60.4838 26.69L61.7638 25.9078L60.4838 26.69ZM59.0889 31.415L58.3928 30.0862L58.3851 30.0903L59.0889 31.415ZM55.8488 32.45L55.6263 30.9666L55.8488 32.45ZM49.3238 15.395L48.7146 14.0243L48.6998 14.0309L48.6852 14.0378L49.3238 15.395ZM48.0639 16.34L49.1696 17.3536L49.1897 17.3316L49.2089 17.3089L48.0639 16.34ZM47.2989 17.6L45.8944 17.0733L45.8846 17.0993L45.8758 17.1257L47.2989 17.6ZM47.0288 18.995L45.5318 18.9014L45.4144 20.7793L47.2712 20.4753L47.0288 18.995ZM54.7238 17.735L54.9662 19.2153L56.4268 18.9761L56.2073 17.5125L54.7238 17.735ZM53.7338 15.935L54.8214 14.9019V14.9019L53.7338 15.935ZM52.4738 31.22C50.8405 31.22 49.3433 30.9987 47.9729 30.5688L47.0748 33.4312C48.7644 33.9613 50.5672 34.22 52.4738 34.22V31.22ZM48.0067 30.5798C46.6814 30.1292 45.5335 29.4738 44.5474 28.6175L42.5803 30.8825C43.8742 32.0062 45.3663 32.8508 47.041 33.4202L48.0067 30.5798ZM44.5623 28.6306C43.6283 27.7975 42.8642 26.7345 42.2818 25.4109L39.5359 26.6191C40.2735 28.2955 41.2794 29.7225 42.5654 30.8694L44.5623 28.6306ZM42.2918 25.4342C41.7549 24.1559 41.4638 22.6061 41.4638 20.75H38.4638C38.4638 22.9139 38.8028 24.8741 39.5259 26.5958L42.2918 25.4342ZM41.4638 20.75C41.4638 18.9237 41.755 17.4482 42.2784 16.2769L39.5393 15.0531C38.8027 16.7018 38.4638 18.6163 38.4638 20.75H41.4638ZM42.2724 16.29C42.8551 15.0186 43.5872 14.0335 44.45 13.2939L42.4977 11.0161C41.2605 12.0765 40.2826 13.4314 39.5452 15.04L42.2724 16.29ZM44.4684 13.2779C45.3581 12.4899 46.3706 11.9197 47.5194 11.5623L46.6283 8.69771C45.0771 9.1803 43.6896 9.96012 42.4793 11.0321L44.4684 13.2779ZM47.5482 11.553C48.7467 11.1535 49.9666 10.955 51.2139 10.955V7.955C49.6411 7.955 48.101 8.20647 46.5995 8.70697L47.5482 11.553ZM51.2139 10.955C52.6525 10.955 53.9119 11.172 55.0107 11.5808L56.0569 8.76917C54.5758 8.21803 52.9551 7.955 51.2139 7.955V10.955ZM55.0212 11.5847C56.1813 12.0065 57.1334 12.5726 57.9034 13.2682L59.9143 11.0418C58.8243 10.0574 57.5264 9.30347 56.0465 8.76531L55.0212 11.5847ZM57.9211 13.2839C58.7144 13.978 59.3172 14.8022 59.7388 15.7694L62.4889 14.5706C61.8905 13.1978 61.0233 12.012 59.8966 11.0261L57.9211 13.2839ZM59.7519 15.7986C60.1946 16.7578 60.4239 17.8164 60.4239 18.995H63.4239C63.4239 17.4136 63.1131 15.9222 62.4758 14.5414L59.7519 15.7986ZM60.4239 18.995C60.4239 19.7326 60.2257 20.0676 60.0372 20.2461L62.1005 22.4239C63.052 21.5224 63.4239 20.2974 63.4239 18.995H60.4239ZM60.0372 20.2461C59.7519 20.5163 59.275 20.7669 58.4656 20.886L58.9021 23.854C60.1327 23.6731 61.2458 23.2337 62.1005 22.4239L60.0372 20.2461ZM58.4616 20.8866L47.3466 22.5516L47.7911 25.5184L58.9061 23.8534L58.4616 20.8866ZM46.1458 24.5093C46.6139 25.9136 47.5835 26.9569 48.923 27.6266L50.2647 24.9434C49.5641 24.5931 49.1838 24.1364 48.9919 23.5607L46.1458 24.5093ZM48.9552 27.6422C50.2063 28.231 51.6005 28.505 53.1039 28.505V25.505C51.9672 25.505 51.0214 25.299 50.2325 24.9278L48.9552 27.6422ZM53.1039 28.505C54.4565 28.505 55.7476 28.3399 56.9703 28.0003L56.1674 25.1097C55.2301 25.3701 54.2112 25.505 53.1039 25.505V28.505ZM56.9963 27.9928C58.1814 27.6405 59.2123 27.2205 60.0488 26.7113L58.4889 24.1487C57.9454 24.4795 57.1763 24.8095 56.1414 25.1172L56.9963 27.9928ZM58.4738 26.702C58.7341 26.8646 58.9809 27.1072 59.2039 27.4722L61.7638 25.9078C61.3268 25.1928 60.7636 24.5953 60.0639 24.158L58.4738 26.702ZM59.2039 27.4722C59.3982 27.7901 59.4789 28.0914 59.4789 28.4H62.4789C62.4789 27.5086 62.2295 26.6699 61.7638 25.9078L59.2039 27.4722ZM59.4789 28.4C59.4789 28.8331 59.3809 29.1375 59.2354 29.3695C59.0873 29.6059 58.8344 29.8549 58.3928 30.0863L59.7849 32.7437C60.6033 32.3151 61.2954 31.7316 61.7773 30.963C62.2618 30.19 62.4789 29.3169 62.4789 28.4H59.4789ZM58.3851 30.0903C57.5918 30.5118 56.6775 30.8089 55.6263 30.9666L56.0714 33.9334C57.4202 33.7311 58.6659 33.3382 59.7926 32.7397L58.3851 30.0903ZM55.6263 30.9666C54.4889 31.1372 53.439 31.22 52.4738 31.22V34.22C53.6087 34.22 54.8088 34.1228 56.0714 33.9334L55.6263 30.9666ZM51.2139 13.535C50.3288 13.535 49.4835 13.6826 48.7146 14.0243L49.9331 16.7657C50.2442 16.6274 50.6589 16.535 51.2139 16.535V13.535ZM48.6852 14.0378C48.0007 14.3598 47.4015 14.8005 46.9188 15.3711L49.2089 17.3089C49.3862 17.0995 49.627 16.9102 49.9625 16.7522L48.6852 14.0378ZM46.9581 15.3264C46.4919 15.8351 46.1384 16.4225 45.8944 17.0733L48.7033 18.1267C48.8193 17.8175 48.9758 17.5649 49.1696 17.3536L46.9581 15.3264ZM45.8758 17.1257C45.6842 17.7006 45.5698 18.2937 45.5318 18.9014L48.5259 19.0886C48.5479 18.7363 48.6135 18.3994 48.7219 18.0743L45.8758 17.1257ZM47.2712 20.4753L54.9662 19.2153L54.4815 16.2547L46.7865 17.5147L47.2712 20.4753ZM56.2073 17.5125C56.0577 16.5152 55.5279 15.6456 54.8214 14.9019L52.6463 16.9681C53.0798 17.4244 53.21 17.7548 53.2404 17.9575L56.2073 17.5125ZM54.8214 14.9019C53.8814 13.9124 52.5892 13.535 51.2139 13.535V16.535C52.0585 16.535 52.4463 16.7576 52.6463 16.9681L54.8214 14.9019ZM72.2211 32L71.7383 33.4202L71.7551 33.4259L71.7721 33.4312L72.2211 32ZM68.2611 29.75L67.2627 30.8694L67.2701 30.876L67.2776 30.8825L68.2611 29.75ZM65.6061 26.015L64.2231 26.5958L64.228 26.6075L64.2331 26.6191L65.6061 26.015ZM65.6061 15.665L64.2425 15.04L64.2395 15.0465L64.2366 15.0531L65.6061 15.665ZM68.1711 12.155L69.1473 13.2939L69.1565 13.286L69.1657 13.2779L68.1711 12.155ZM71.7711 10.13L72.2167 11.5623L72.2311 11.5578L72.2455 11.553L71.7711 10.13ZM80.2311 10.175L79.708 11.5809L79.7185 11.5847L80.2311 10.175ZM83.6061 12.155L82.6007 13.2682L82.6095 13.2761L82.6184 13.2839L83.6061 12.155ZM85.8111 15.17L84.4361 15.7694L84.4425 15.7841L84.4492 15.7986L85.8111 15.17ZM85.7661 21.335L84.7345 20.2461V20.2461L85.7661 21.335ZM83.3811 22.37L83.1629 20.886L83.1589 20.8866L83.3811 22.37ZM72.2661 24.035L72.0439 22.5516L70.2786 22.816L70.8431 24.5093L72.2661 24.035ZM74.2911 26.285L73.6203 27.6266L73.6363 27.6346L73.6524 27.6422L74.2911 26.285ZM81.2661 26.555L81.6676 28.0003L81.6806 27.9967L81.6936 27.9928L81.2661 26.555ZM83.9661 25.43L84.7611 24.158L83.9765 23.6676L83.1862 24.1487L83.9661 25.43ZM85.1811 26.69L86.461 25.9078H86.461L85.1811 26.69ZM83.7861 31.415L83.0901 30.0862L83.0824 30.0903L83.7861 31.415ZM80.5461 32.45L80.3236 30.9666L80.5461 32.45ZM74.0211 15.395L73.4119 14.0243L73.3971 14.0309L73.3824 14.0378L74.0211 15.395ZM72.7611 16.34L73.8669 17.3536L73.887 17.3316L73.9062 17.3089L72.7611 16.34ZM71.9961 17.6L70.5916 17.0733L70.5819 17.0993L70.5731 17.1257L71.9961 17.6ZM71.7261 18.995L70.229 18.9014L70.1117 20.7793L71.9685 20.4753L71.7261 18.995ZM79.4211 17.735L79.6635 19.2153L81.1241 18.9761L80.9045 17.5125L79.4211 17.735ZM78.4311 15.935L79.5186 14.9019V14.9019L78.4311 15.935ZM77.1711 31.22C75.5377 31.22 74.0406 30.9987 72.6701 30.5688L71.7721 33.4312C73.4616 33.9613 75.2645 34.22 77.1711 34.22V31.22ZM72.704 30.5798C71.3787 30.1292 70.2308 29.4738 69.2446 28.6175L67.2776 30.8825C68.5714 32.0062 70.0635 32.8508 71.7383 33.4202L72.704 30.5798ZM69.2595 28.6306C68.3255 27.7975 67.5615 26.7345 66.9791 25.4109L64.2331 26.6191C64.9708 28.2955 65.9767 29.7225 67.2627 30.8694L69.2595 28.6306ZM66.9891 25.4342C66.4522 24.1559 66.1611 22.6061 66.1611 20.75H63.1611C63.1611 22.9139 63.5 24.8741 64.2231 26.5958L66.9891 25.4342ZM66.1611 20.75C66.1611 18.9237 66.4523 17.4482 66.9756 16.2769L64.2366 15.0531C63.5 16.7018 63.1611 18.6163 63.1611 20.75H66.1611ZM66.9697 16.29C67.5524 15.0186 68.2845 14.0335 69.1473 13.2939L67.1949 11.0161C65.9578 12.0765 64.9798 13.4314 64.2425 15.04L66.9697 16.29ZM69.1657 13.2779C70.0554 12.4899 71.0679 11.9197 72.2167 11.5623L71.3255 8.69771C69.7744 9.1803 68.3869 9.96012 67.1766 11.0321L69.1657 13.2779ZM72.2455 11.553C73.4439 11.1535 74.6638 10.955 75.9111 10.955V7.955C74.3384 7.955 72.7983 8.20647 71.2968 8.70697L72.2455 11.553ZM75.9111 10.955C77.3498 10.955 78.6092 11.172 79.708 11.5808L80.7542 8.76917C79.273 8.21803 77.6524 7.955 75.9111 7.955V10.955ZM79.7185 11.5847C80.8786 12.0065 81.8306 12.5726 82.6007 13.2682L84.6115 11.0418C83.5216 10.0574 82.2237 9.30347 80.7437 8.76531L79.7185 11.5847ZM82.6184 13.2839C83.4117 13.978 84.0145 14.8022 84.4361 15.7694L87.1862 14.5706C86.5878 13.1978 85.7206 12.012 84.5939 11.0261L82.6184 13.2839ZM84.4492 15.7986C84.8919 16.7578 85.1211 17.8164 85.1211 18.995H88.1211C88.1211 17.4136 87.8103 15.9222 87.173 14.5414L84.4492 15.7986ZM85.1211 18.995C85.1211 19.7326 84.9229 20.0676 84.7345 20.2461L86.7977 22.4239C87.7493 21.5224 88.1211 20.2974 88.1211 18.995H85.1211ZM84.7345 20.2461C84.4492 20.5163 83.9723 20.7669 83.1629 20.886L83.5993 23.854C84.83 23.6731 85.943 23.2337 86.7977 22.4239L84.7345 20.2461ZM83.1589 20.8866L72.0439 22.5516L72.4883 25.5184L83.6033 23.8534L83.1589 20.8866ZM70.8431 24.5093C71.3112 25.9136 72.2808 26.9569 73.6203 27.6266L74.9619 24.9434C74.2614 24.5931 73.881 24.1364 73.6891 23.5607L70.8431 24.5093ZM73.6524 27.6422C74.9036 28.231 76.2978 28.505 77.8011 28.505V25.505C76.6644 25.505 75.7187 25.299 74.9298 24.9278L73.6524 27.6422ZM77.8011 28.505C79.1537 28.505 80.4448 28.3399 81.6676 28.0003L80.8647 25.1097C79.9274 25.3701 78.9085 25.505 77.8011 25.505V28.505ZM81.6936 27.9928C82.8787 27.6405 83.9095 27.2205 84.746 26.7113L83.1862 24.1487C82.6427 24.4795 81.8735 24.8095 80.8387 25.1172L81.6936 27.9928ZM83.1711 26.702C83.4314 26.8646 83.6781 27.1072 83.9012 27.4722L86.461 25.9078C86.0241 25.1928 85.4609 24.5953 84.7611 24.158L83.1711 26.702ZM83.9012 27.4722C84.0955 27.7901 84.1761 28.0914 84.1761 28.4H87.1761C87.1761 27.5086 86.9267 26.6699 86.461 25.9078L83.9012 27.4722ZM84.1761 28.4C84.1761 28.8331 84.0781 29.1375 83.9327 29.3695C83.7845 29.6059 83.5317 29.8549 83.0901 30.0863L84.4821 32.7437C85.3005 32.3151 85.9927 31.7316 86.4745 30.963C86.9591 30.19 87.1761 29.3169 87.1761 28.4H84.1761ZM83.0824 30.0903C82.289 30.5118 81.3748 30.8089 80.3236 30.9666L80.7686 33.9334C82.1175 33.7311 83.3632 33.3382 84.4899 32.7397L83.0824 30.0903ZM80.3236 30.9666C79.1862 31.1372 78.1362 31.22 77.1711 31.22V34.22C78.306 34.22 79.506 34.1228 80.7686 33.9334L80.3236 30.9666ZM75.9111 13.535C75.026 13.535 74.1808 13.6826 73.4119 14.0243L74.6303 16.7657C74.9414 16.6274 75.3562 16.535 75.9111 16.535V13.535ZM73.3824 14.0378C72.698 14.3598 72.0988 14.8005 71.616 15.3711L73.9062 17.3089C74.0834 17.0995 74.3242 16.9102 74.6598 16.7522L73.3824 14.0378ZM71.6554 15.3264C71.1891 15.8351 70.8357 16.4225 70.5916 17.0733L73.4006 18.1267C73.5165 17.8175 73.6731 17.5649 73.8669 17.3536L71.6554 15.3264ZM70.5731 17.1257C70.3815 17.7006 70.267 18.2937 70.229 18.9014L73.2232 19.0886C73.2452 18.7363 73.3108 18.3994 73.4191 18.0743L70.5731 17.1257ZM71.9685 20.4753L79.6635 19.2153L79.1787 16.2547L71.4837 17.5147L71.9685 20.4753ZM80.9045 17.5125C80.7549 16.5152 80.2252 15.6456 79.5186 14.9019L77.3436 16.9681C77.777 17.4244 77.9073 17.7548 77.9377 17.9575L80.9045 17.5125ZM79.5186 14.9019C78.5786 13.9124 77.2865 13.535 75.9111 13.535V16.535C76.7558 16.535 77.1436 16.7576 77.3436 16.9681L79.5186 14.9019ZM98.5384 26.375H97.0384V27.5065L98.1263 27.8173L98.5384 26.375ZM100.158 26.645L100.023 28.1388L100.056 28.1419L100.09 28.1435L100.158 26.645ZM105.018 25.97L105.805 27.2475L105.811 27.2435L105.818 27.2393L105.018 25.97ZM105.243 21.515L104.438 22.7805L105.243 21.515ZM98.5384 20.885V19.385H97.0384V20.885H98.5384ZM98.5384 15.395H97.0384V16.895H98.5384V15.395ZM104.613 14.675L103.676 13.5037L103.662 13.5155L103.647 13.5276L104.613 14.675ZM104.478 10.625L103.596 11.8381L103.609 11.8474L103.622 11.8564L104.478 10.625ZM99.8884 9.95L99.8135 8.45187L99.8095 8.45207L99.8884 9.95ZM98.5384 10.085L98.2701 8.60919L97.0384 8.83314V10.085H98.5384ZM97.5034 32.495L97.3173 33.9834L97.3247 33.9843L97.5034 32.495ZM95.3434 32.135L95.6493 30.6665L95.6198 30.6604L95.59 30.6554L95.3434 32.135ZM93.3634 31.595L93.9205 30.2023L93.9095 30.1979L93.8984 30.1937L93.3634 31.595ZM91.3834 5.855L92.444 6.91566L92.444 6.91566L91.3834 5.855ZM92.8234 5L93.3189 6.41579L93.3226 6.41448L92.8234 5ZM96.6484 4.235L96.7947 5.72784L96.8092 5.72642L96.8236 5.72472L96.6484 4.235ZM110.238 5.9L111.032 4.62697V4.62697L110.238 5.9ZM112.173 15.395L113.338 16.3409L113.345 16.3322L113.352 16.3233L112.173 15.395ZM109.023 17.51L108.539 16.0902L103.962 17.6506L108.619 18.9544L109.023 17.51ZM112.758 19.805L111.639 20.8034L111.646 20.8117L111.654 20.8199L112.758 19.805ZM110.958 30.605L111.77 31.8662L111.775 31.8634L110.958 30.605ZM98.1263 27.8173C98.6701 27.9727 99.3117 28.0742 100.023 28.1388L100.294 25.1512C99.685 25.0958 99.2467 25.0173 98.9505 24.9327L98.1263 27.8173ZM100.09 28.1435C100.771 28.1744 101.424 28.19 102.048 28.19V25.19C101.473 25.19 100.866 25.1756 100.226 25.1465L100.09 28.1435ZM102.048 28.19C103.442 28.19 104.725 27.9116 105.805 27.2475L104.232 24.6925C103.751 24.9884 103.055 25.19 102.048 25.19V28.19ZM105.818 27.2393C107.112 26.4244 107.733 25.1358 107.733 23.63H104.733C104.733 24.2242 104.545 24.4956 104.219 24.7007L105.818 27.2393ZM107.733 23.63C107.733 22.2822 107.258 21.0189 106.049 20.2495L104.438 22.7805C104.549 22.8511 104.733 22.9978 104.733 23.63H107.733ZM106.049 20.2495C105.03 19.6014 103.681 19.385 102.228 19.385V22.385C103.476 22.385 104.137 22.5886 104.438 22.7805L106.049 20.2495ZM102.228 19.385H98.5384V22.385H102.228V19.385ZM97.0384 20.885V26.375H100.038V20.885H97.0384ZM98.5384 16.895H101.823V13.895H98.5384V16.895ZM101.823 16.895C103.232 16.895 104.602 16.6457 105.58 15.8224L103.647 13.5276C103.485 13.6643 102.994 13.895 101.823 13.895V16.895ZM105.55 15.8463C106.582 15.0213 107.013 13.8395 107.013 12.56H104.013C104.013 13.1405 103.845 13.3687 103.676 13.5037L105.55 15.8463ZM107.013 12.56C107.013 11.2374 106.41 10.1415 105.335 9.39364L103.622 11.8564C103.927 12.0685 104.013 12.2626 104.013 12.56H107.013ZM105.361 9.4119C104.325 8.65877 102.942 8.405 101.463 8.405V11.405C102.685 11.405 103.312 11.6312 103.596 11.8381L105.361 9.4119ZM101.463 8.405C100.982 8.405 100.431 8.42101 99.8135 8.45187L99.9633 11.4481C100.546 11.419 101.045 11.405 101.463 11.405V8.405ZM99.8095 8.45207C99.2134 8.48345 98.6911 8.53264 98.2701 8.60919L98.8067 11.5608C99.0457 11.5174 99.4234 11.4765 99.9672 11.4479L99.8095 8.45207ZM97.0384 10.085V15.395H100.038V10.085H97.0384ZM101.463 31.22C100.981 31.22 100.404 31.2058 99.7285 31.1764L99.5982 34.1736C100.303 34.2042 100.926 34.22 101.463 34.22V31.22ZM99.7285 31.1764C99.0798 31.1482 98.3978 31.0916 97.6821 31.0057L97.3247 33.9843C98.1089 34.0784 98.8669 34.1418 99.5982 34.1736L99.7285 31.1764ZM97.6894 31.0066C97.0102 30.9217 96.3302 30.8084 95.6493 30.6665L95.0374 33.6035C95.7966 33.7616 96.5566 33.8883 97.3173 33.9834L97.6894 31.0066ZM95.59 30.6554C94.9628 30.5509 94.4085 30.3975 93.9205 30.2023L92.8063 32.9877C93.5183 33.2725 94.2839 33.4791 95.0968 33.6146L95.59 30.6554ZM93.8984 30.1937C93.2621 29.9507 92.9054 29.6644 92.7052 29.3986C92.5151 29.1464 92.3884 28.8113 92.3884 28.31H89.3884C89.3884 29.3687 89.6741 30.3611 90.3091 31.2039C90.9338 32.033 91.8147 32.6093 92.8283 32.9963L93.8984 30.1937ZM92.3884 28.31V7.295H89.3884V28.31H92.3884ZM92.3884 7.295C92.3884 7.10751 92.4133 7.00058 92.4307 6.95012C92.4456 6.90664 92.4541 6.90556 92.444 6.91566L90.3227 4.79434C89.6242 5.49287 89.3884 6.41036 89.3884 7.295H92.3884ZM92.444 6.91566C92.6102 6.74954 92.88 6.56939 93.3189 6.41579L92.3279 3.58421C91.5667 3.8506 90.8766 4.24046 90.3227 4.79434L92.444 6.91566ZM93.3226 6.41448C94.192 6.10766 95.3391 5.87055 96.7947 5.72784L96.502 2.74216C94.8977 2.89944 93.4948 3.17234 92.3241 3.58551L93.3226 6.41448ZM96.8236 5.72472C98.2926 5.55191 99.809 5.465 101.373 5.465V2.465C99.6978 2.465 98.0642 2.55809 96.4731 2.74527L96.8236 5.72472ZM101.373 5.465C105.08 5.465 107.713 6.09364 109.445 7.17303L111.032 4.62697C108.624 3.12635 105.347 2.465 101.373 2.465V5.465ZM109.445 7.17303C111.022 8.15591 111.843 9.6368 111.843 11.885H114.843C114.843 8.7332 113.595 6.22409 111.032 4.62697L109.445 7.17303ZM111.843 11.885C111.843 12.9238 111.551 13.7607 110.995 14.4667L113.352 16.3233C114.355 15.0493 114.843 13.5462 114.843 11.885H111.843ZM111.009 14.4491C110.429 15.1634 109.628 15.7193 108.539 16.0902L109.507 18.9298C111.059 18.4007 112.358 17.5466 113.338 16.3409L111.009 14.4491ZM108.619 18.9544C109.857 19.301 110.849 19.9178 111.639 20.8034L113.878 18.8066C112.688 17.4722 111.19 16.559 109.428 16.0656L108.619 18.9544ZM111.654 20.8199C112.39 21.6207 112.788 22.6394 112.788 23.99H115.788C115.788 21.9806 115.167 20.2093 113.863 18.7901L111.654 20.8199ZM112.788 23.99C112.788 26.5251 111.878 28.2208 110.142 29.3466L111.775 31.8634C114.479 30.1092 115.788 27.3949 115.788 23.99H112.788ZM110.146 29.3438C108.302 30.5311 105.47 31.22 101.463 31.22V34.22C105.736 34.22 109.234 33.4989 111.77 31.8662L110.146 29.3438ZM119.11 1.175L118.049 0.114336L118.039 0.124735L118.028 0.135334L119.11 1.175ZM125.185 1.175L124.103 2.21466L124.114 2.22526L124.124 2.23566L125.185 1.175ZM125.185 6.935L124.124 5.87434L124.114 5.88474L124.103 5.89534L125.185 6.935ZM119.11 6.935L118.028 7.97466L118.039 7.98526L118.049 7.99566L119.11 6.935ZM125.995 31.955L126.263 33.4308L127.495 33.2069V31.955H125.995ZM124.51 32.18L124.307 30.6938L124.268 30.6991L124.229 30.7065L124.51 32.18ZM120.775 32.225L120.514 33.7022L120.521 33.7034L120.528 33.7046L120.775 32.225ZM119.47 31.685L118.57 32.885L119.47 31.685ZM118.615 30.605L117.21 31.1317L117.231 31.1864L117.255 31.2393L118.615 30.605ZM118.345 10.445L118.076 8.96919L116.845 9.19313V10.445H118.345ZM119.785 10.22L119.997 11.7049L120.025 11.7009L120.053 11.6958L119.785 10.22ZM123.52 10.175L123.259 11.6522L123.266 11.6534L123.273 11.6546L123.52 10.175ZM124.87 10.715L123.97 11.915V11.915L124.87 10.715ZM125.68 11.84L124.275 12.3667L124.296 12.4214L124.32 12.4743L125.68 11.84ZM119.485 4.055C119.485 3.27971 119.725 2.69913 120.191 2.21466L118.028 0.135334C116.994 1.21087 116.485 2.55028 116.485 4.055H119.485ZM120.17 2.23566C120.628 1.77765 121.246 1.505 122.17 1.505V-1.495C120.573 -1.495 119.151 -0.987656 118.049 0.114336L120.17 2.23566ZM122.17 1.505C123.095 1.505 123.683 1.77751 124.103 2.21466L126.266 0.135334C125.186 -0.98751 123.765 -1.495 122.17 -1.495V1.505ZM124.124 2.23566C124.612 2.72401 124.855 3.29795 124.855 4.055H127.855C127.855 2.53205 127.317 1.18599 126.245 0.114337L124.124 2.23566ZM124.855 4.055C124.855 4.81205 124.612 5.38599 124.124 5.87434L126.245 7.99566C127.317 6.92401 127.855 5.57795 127.855 4.055H124.855ZM124.103 5.89534C123.683 6.33249 123.095 6.605 122.17 6.605V9.605C123.765 9.605 125.186 9.09751 126.266 7.97466L124.103 5.89534ZM122.17 6.605C121.246 6.605 120.628 6.33235 120.17 5.87434L118.049 7.99566C119.151 9.09765 120.573 9.605 122.17 9.605V6.605ZM120.191 5.89533C119.725 5.41087 119.485 4.83029 119.485 4.055H116.485C116.485 5.55971 116.994 6.89913 118.028 7.97466L120.191 5.89533ZM125.726 30.4792C125.43 30.533 124.962 30.6044 124.307 30.6938L124.712 33.6662C125.377 33.5756 125.899 33.497 126.263 33.4308L125.726 30.4792ZM124.229 30.7065C123.694 30.8084 123.143 30.86 122.575 30.86V33.86C123.326 33.86 124.065 33.7916 124.79 33.6535L124.229 30.7065ZM122.575 30.86C121.981 30.86 121.465 30.8194 121.021 30.7454L120.528 33.7046C121.164 33.8106 121.848 33.86 122.575 33.86V30.86ZM121.035 30.7478C120.722 30.6926 120.515 30.5938 120.37 30.485L118.57 32.885C119.145 33.3162 119.807 33.5774 120.514 33.7022L121.035 30.7478ZM120.37 30.485C120.227 30.3778 120.091 30.2208 119.974 29.9707L117.255 31.2393C117.559 31.8892 117.993 32.4522 118.57 32.885L120.37 30.485ZM120.019 30.0783C119.924 29.8255 119.845 29.4059 119.845 28.76H116.845C116.845 29.6141 116.945 30.4245 117.21 31.1317L120.019 30.0783ZM119.845 28.76V10.445H116.845V28.76H119.845ZM118.613 11.9208C118.915 11.866 119.372 11.7942 119.997 11.7049L119.573 8.73507C118.937 8.82584 118.435 8.90402 118.076 8.96919L118.613 11.9208ZM120.053 11.6958C120.626 11.5916 121.196 11.54 121.765 11.54V8.54C121.013 8.54 120.263 8.60836 119.516 8.74419L120.053 11.6958ZM121.765 11.54C122.36 11.54 122.855 11.5808 123.259 11.6522L123.78 8.69782C123.165 8.58917 122.49 8.54 121.765 8.54V11.54ZM123.273 11.6546C123.627 11.7135 123.839 11.8172 123.97 11.915L125.77 9.515C125.18 9.07282 124.493 8.81646 123.766 8.69541L123.273 11.6546ZM123.97 11.915C124.07 11.9903 124.181 12.1164 124.275 12.3667L127.084 11.3133C126.818 10.6036 126.389 9.97971 125.77 9.515L123.97 11.915ZM124.32 12.4743C124.403 12.6506 124.495 13.0075 124.495 13.64H127.495C127.495 12.7725 127.377 11.9294 127.039 11.2057L124.32 12.4743ZM124.495 13.64V31.955H127.495V13.64H124.495ZM139.235 26.15L138.385 27.3861L138.402 27.398L138.42 27.4094L139.235 26.15ZM142.745 26.555L142.931 28.0434L142.976 28.0377L143.021 28.0293L142.745 26.555ZM144.005 26.24L145.166 25.2901L144.511 24.4901L143.531 24.817L144.005 26.24ZM144.68 27.365L143.301 27.9559L143.328 28.0173L143.359 28.0761L144.68 27.365ZM143.69 31.595L142.734 30.4394L142.724 30.4477L142.714 30.4561L143.69 31.595ZM133.07 30.875L132.098 32.0173L132.104 32.0224L132.11 32.0273L133.07 30.875ZM130.955 5.765L130.56 4.31785L129.455 4.61931V5.765H130.955ZM132.35 5.495L132.572 6.9784L132.602 6.97403L132.631 6.96851L132.35 5.495ZM137.39 6.035L136.558 7.28307L136.588 7.30287L136.618 7.32124L137.39 6.035ZM138.515 11.84H137.015V13.34H138.515V11.84ZM144.41 11.84L145.727 11.1217L145.3 10.34H144.41V11.84ZM144.905 13.1L143.466 13.5232L143.481 13.5756L143.5 13.6267L144.905 13.1ZM138.515 17.69V16.19H137.015V17.69H138.515ZM137.015 24.485C137.015 25.5747 137.367 26.6859 138.385 27.3861L140.085 24.9139C140.08 24.9107 140.081 24.911 140.083 24.9137C140.085 24.916 140.08 24.9109 140.072 24.8909C140.053 24.8473 140.015 24.7271 140.015 24.485H137.015ZM138.42 27.4094C139.263 27.955 140.292 28.145 141.35 28.145V25.145C140.608 25.145 140.227 25.005 140.05 24.8906L138.42 27.4094ZM141.35 28.145C141.867 28.145 142.394 28.1106 142.931 28.0434L142.559 25.0666C142.136 25.1194 141.733 25.145 141.35 25.145V28.145ZM143.021 28.0293C143.55 27.9301 144.039 27.8097 144.479 27.663L143.531 24.817C143.251 24.9103 142.899 24.9999 142.468 25.0807L143.021 28.0293ZM142.844 27.1899C143.019 27.4035 143.173 27.6559 143.301 27.9559L146.059 26.7741C145.827 26.2341 145.531 25.7365 145.166 25.2901L142.844 27.1899ZM143.359 28.0761C143.423 28.1938 143.495 28.414 143.495 28.805H146.495C146.495 28.056 146.357 27.3162 146.001 26.6539L143.359 28.0761ZM143.495 28.805C143.495 29.503 143.255 30.0075 142.734 30.4394L144.646 32.7506C145.864 31.7425 146.495 30.387 146.495 28.805H143.495ZM142.714 30.4561C142.307 30.8051 141.285 31.175 139.19 31.175V34.175C141.415 34.175 143.393 33.8249 144.666 32.7339L142.714 30.4561ZM139.19 31.175C136.759 31.175 135.109 30.6216 134.03 29.7227L132.11 32.0273C133.911 33.5284 136.34 34.175 139.19 34.175V31.175ZM134.042 29.7327C133.098 28.9288 132.455 27.4919 132.455 25.025H129.455C129.455 27.9581 130.222 30.4212 132.098 32.0173L134.042 29.7327ZM132.455 25.025V5.765H129.455V25.025H132.455ZM131.35 7.21214C131.596 7.14502 131.993 7.06524 132.572 6.9784L132.127 4.01159C131.506 4.10475 130.974 4.20498 130.56 4.31785L131.35 7.21214ZM132.631 6.96851C133.161 6.8674 133.727 6.815 134.33 6.815V3.815C133.553 3.815 132.798 3.88259 132.069 4.02149L132.631 6.96851ZM134.33 6.815C135.499 6.815 136.182 7.03264 136.558 7.28307L138.222 4.78692C137.158 4.07735 135.801 3.815 134.33 3.815V6.815ZM136.618 7.32124C136.664 7.3486 137.015 7.60356 137.015 8.96H140.015C140.015 7.31643 139.616 5.62139 138.162 4.74876L136.618 7.32124ZM137.015 8.96V11.84H140.015V8.96H137.015ZM138.515 13.34H144.41V10.34H138.515V13.34ZM143.093 12.5583C143.206 12.7649 143.335 13.0772 143.466 13.5232L146.344 12.6767C146.175 12.1028 145.974 11.5751 145.727 11.1217L143.093 12.5583ZM143.5 13.6267C143.607 13.9122 143.675 14.2698 143.675 14.72H146.675C146.675 13.9702 146.562 13.2478 146.309 12.5733L143.5 13.6267ZM143.675 14.72C143.675 15.5845 143.472 15.8767 143.394 15.9543L145.516 18.0757C146.398 17.1933 146.675 15.9555 146.675 14.72H143.675ZM143.394 15.9543C143.287 16.0621 143.088 16.19 142.61 16.19V19.19C143.692 19.19 144.723 18.8679 145.516 18.0757L143.394 15.9543ZM142.61 16.19H138.515V19.19H142.61V16.19ZM137.015 17.69V24.485H140.015V17.69H137.015ZM155.234 32L154.751 33.4202L154.768 33.4259L154.785 33.4312L155.234 32ZM151.274 29.75L150.275 30.8694L150.283 30.876L150.29 30.8825L151.274 29.75ZM148.619 26.015L147.236 26.5958L147.241 26.6075L147.246 26.6191L148.619 26.015ZM148.619 15.665L147.255 15.04L147.252 15.0465L147.249 15.0531L148.619 15.665ZM151.184 12.155L152.16 13.2939L152.169 13.286L152.178 13.2779L151.184 12.155ZM154.784 10.13L155.229 11.5623L155.244 11.5578L155.258 11.553L154.784 10.13ZM163.244 10.175L162.721 11.5809L162.731 11.5847L163.244 10.175ZM166.619 12.155L165.613 13.2682L165.622 13.2761L165.631 13.2839L166.619 12.155ZM168.824 15.17L167.449 15.7694L167.455 15.7841L167.462 15.7986L168.824 15.17ZM168.779 21.335L167.747 20.2461V20.2461L168.779 21.335ZM166.394 22.37L166.176 20.886L166.172 20.8866L166.394 22.37ZM155.279 24.035L155.057 22.5516L153.291 22.816L153.856 24.5093L155.279 24.035ZM157.304 26.285L156.633 27.6266L156.649 27.6346L156.665 27.6422L157.304 26.285ZM164.279 26.555L164.68 28.0003L164.693 27.9967L164.706 27.9928L164.279 26.555ZM166.979 25.43L167.774 24.158L166.989 23.6676L166.199 24.1487L166.979 25.43ZM168.194 26.69L169.474 25.9078H169.474L168.194 26.69ZM166.799 31.415L166.103 30.0862L166.095 30.0903L166.799 31.415ZM163.559 32.45L163.336 30.9666L163.559 32.45ZM157.034 15.395L156.425 14.0243L156.41 14.0309L156.395 14.0378L157.034 15.395ZM155.774 16.34L156.88 17.3536L156.9 17.3316L156.919 17.3089L155.774 16.34ZM155.009 17.6L153.604 17.0733L153.595 17.0993L153.586 17.1257L155.009 17.6ZM154.739 18.995L153.242 18.9014L153.124 20.7793L154.981 20.4753L154.739 18.995ZM162.434 17.735L162.676 19.2153L164.137 18.9761L163.917 17.5125L162.434 17.735ZM161.444 15.935L162.531 14.9019V14.9019L161.444 15.935ZM160.184 31.22C158.55 31.22 157.053 30.9987 155.683 30.5688L154.785 33.4312C156.474 33.9613 158.277 34.22 160.184 34.22V31.22ZM155.717 30.5798C154.391 30.1292 153.243 29.4738 152.257 28.6175L150.29 30.8825C151.584 32.0062 153.076 32.8508 154.751 33.4202L155.717 30.5798ZM152.272 28.6306C151.338 27.7975 150.574 26.7345 149.992 25.4109L147.246 26.6191C147.983 28.2955 148.989 29.7225 150.275 30.8694L152.272 28.6306ZM150.002 25.4342C149.465 24.1559 149.174 22.6061 149.174 20.75H146.174C146.174 22.9139 146.513 24.8741 147.236 26.5958L150.002 25.4342ZM149.174 20.75C149.174 18.9237 149.465 17.4482 149.988 16.2769L147.249 15.0531C146.513 16.7018 146.174 18.6163 146.174 20.75H149.174ZM149.982 16.29C150.565 15.0186 151.297 14.0335 152.16 13.2939L150.208 11.0161C148.97 12.0765 147.993 13.4314 147.255 15.04L149.982 16.29ZM152.178 13.2779C153.068 12.4899 154.081 11.9197 155.229 11.5623L154.338 8.69771C152.787 9.1803 151.4 9.96012 150.189 11.0321L152.178 13.2779ZM155.258 11.553C156.457 11.1535 157.677 10.955 158.924 10.955V7.955C157.351 7.955 155.811 8.20647 154.309 8.70697L155.258 11.553ZM158.924 10.955C160.363 10.955 161.622 11.172 162.721 11.5808L163.767 8.76917C162.286 8.21803 160.665 7.955 158.924 7.955V10.955ZM162.731 11.5847C163.891 12.0065 164.843 12.5726 165.613 13.2682L167.624 11.0418C166.534 10.0574 165.236 9.30347 163.756 8.76531L162.731 11.5847ZM165.631 13.2839C166.424 13.978 167.027 14.8022 167.449 15.7694L170.199 14.5706C169.6 13.1978 168.733 12.012 167.607 11.0261L165.631 13.2839ZM167.462 15.7986C167.905 16.7578 168.134 17.8164 168.134 18.995H171.134C171.134 17.4136 170.823 15.9222 170.186 14.5414L167.462 15.7986ZM168.134 18.995C168.134 19.7326 167.936 20.0676 167.747 20.2461L169.81 22.4239C170.762 21.5224 171.134 20.2974 171.134 18.995H168.134ZM167.747 20.2461C167.462 20.5163 166.985 20.7669 166.176 20.886L166.612 23.854C167.843 23.6731 168.956 23.2337 169.81 22.4239L167.747 20.2461ZM166.172 20.8866L155.057 22.5516L155.501 25.5184L166.616 23.8534L166.172 20.8866ZM153.856 24.5093C154.324 25.9136 155.294 26.9569 156.633 27.6266L157.975 24.9434C157.274 24.5931 156.894 24.1364 156.702 23.5607L153.856 24.5093ZM156.665 27.6422C157.916 28.231 159.31 28.505 160.814 28.505V25.505C159.677 25.505 158.731 25.299 157.943 24.9278L156.665 27.6422ZM160.814 28.505C162.166 28.505 163.458 28.3399 164.68 28.0003L163.877 25.1097C162.94 25.3701 161.921 25.505 160.814 25.505V28.505ZM164.706 27.9928C165.891 27.6405 166.922 27.2205 167.759 26.7113L166.199 24.1487C165.655 24.4795 164.886 24.8095 163.851 25.1172L164.706 27.9928ZM166.184 26.702C166.444 26.8646 166.691 27.1072 166.914 27.4722L169.474 25.9078C169.037 25.1928 168.474 24.5953 167.774 24.158L166.184 26.702ZM166.914 27.4722C167.108 27.7901 167.189 28.0914 167.189 28.4H170.189C170.189 27.5086 169.939 26.6699 169.474 25.9078L166.914 27.4722ZM167.189 28.4C167.189 28.8331 167.091 29.1375 166.945 29.3695C166.797 29.6059 166.544 29.8549 166.103 30.0863L167.495 32.7437C168.313 32.3151 169.005 31.7316 169.487 30.963C169.972 30.19 170.189 29.3169 170.189 28.4H167.189ZM166.095 30.0903C165.302 30.5118 164.387 30.8089 163.336 30.9666L163.781 33.9334C165.13 33.7311 166.376 33.3382 167.503 32.7397L166.095 30.0903ZM163.336 30.9666C162.199 31.1372 161.149 31.22 160.184 31.22V34.22C161.319 34.22 162.519 34.1228 163.781 33.9334L163.336 30.9666ZM158.924 13.535C158.039 13.535 157.193 13.6826 156.425 14.0243L157.643 16.7657C157.954 16.6274 158.369 16.535 158.924 16.535V13.535ZM156.395 14.0378C155.711 14.3598 155.112 14.8005 154.629 15.3711L156.919 17.3089C157.096 17.0995 157.337 16.9102 157.673 16.7522L156.395 14.0378ZM154.668 15.3264C154.202 15.8351 153.848 16.4225 153.604 17.0733L156.413 18.1267C156.529 17.8175 156.686 17.5649 156.88 17.3536L154.668 15.3264ZM153.586 17.1257C153.394 17.7006 153.28 18.2937 153.242 18.9014L156.236 19.0886C156.258 18.7363 156.323 18.3994 156.432 18.0743L153.586 17.1257ZM154.981 20.4753L162.676 19.2153L162.191 16.2547L154.496 17.5147L154.981 20.4753ZM163.917 17.5125C163.768 16.5152 163.238 15.6456 162.531 14.9019L160.356 16.9681C160.79 17.4244 160.92 17.7548 160.95 17.9575L163.917 17.5125ZM162.531 14.9019C161.591 13.9124 160.299 13.535 158.924 13.535V16.535C159.768 16.535 160.156 16.7576 160.356 16.9681L162.531 14.9019ZM189.201 30.83L190.104 32.0275L189.201 30.83ZM178.131 32.495L178.378 31.0154L178.131 32.495ZM175.341 31.685L174.649 33.0158L174.68 33.0321L174.712 33.0469L175.341 31.685ZM173.541 30.245L172.333 31.1348L172.348 31.1549L172.364 31.1745L173.541 30.245ZM173.361 26.42L174.633 27.215L174.644 27.1979L174.654 27.1805L173.361 26.42ZM174.441 25.16L175.166 23.8466L174.296 23.3666L173.514 23.9805L174.441 25.16ZM177.411 26.465L176.914 27.8802L176.936 27.8881L176.959 27.8954L177.411 26.465ZM183.441 26.6L182.739 25.2743L182.722 25.2833L182.706 25.2926L183.441 26.6ZM181.866 23.945L181.572 25.4159L181.587 25.4189L181.602 25.4216L181.866 23.945ZM180.516 23.675L180.81 22.2041L180.804 22.2028L180.516 23.675ZM174.666 21.29L173.675 22.4155L173.689 22.428L173.703 22.4401L174.666 21.29ZM173.496 13.55L172.173 12.8441L173.496 13.55ZM175.521 11.3L176.373 12.5348V12.5348L175.521 11.3ZM178.626 9.905L178.237 8.45621L178.228 8.45869L178.626 9.905ZM185.781 9.68L185.505 11.1543L185.53 11.1591L185.556 11.1631L185.781 9.68ZM188.346 10.4L187.721 11.7636L187.721 11.7636L188.346 10.4ZM190.056 11.705L188.872 12.6259L188.885 12.6424L188.898 12.6586L190.056 11.705ZM190.281 15.35L188.955 14.6482L188.947 14.6636L188.939 14.6792L190.281 15.35ZM189.336 16.565L188.541 17.837L189.469 18.4172L190.305 17.7101L189.336 16.565ZM188.256 16.115L187.729 17.5195L187.769 17.5342L187.809 17.5467L188.256 16.115ZM186.681 15.665L186.299 17.1156L186.335 17.1251L186.372 17.1328L186.681 15.665ZM184.926 15.305L184.692 16.7867L184.704 16.7884L184.926 15.305ZM181.056 15.53L181.6 16.928L181.633 16.9151L181.665 16.9007L181.056 15.53ZM180.696 17.375L179.836 18.6038V18.6038L180.696 17.375ZM182.406 17.96L182.736 16.4968L182.728 16.495L182.72 16.4933L182.406 17.96ZM183.801 18.275L184.136 16.8129L184.131 16.8118L183.801 18.275ZM189.921 21.02L188.874 22.094L188.888 22.1072L188.901 22.1201L189.921 21.02ZM190.266 25.475C190.266 27.3196 189.605 28.6466 188.298 29.6325L190.104 32.0275C192.217 30.4334 193.266 28.1904 193.266 25.475H190.266ZM188.298 29.6325C186.957 30.6441 184.815 31.265 181.641 31.265V34.265C185.128 34.265 188.025 33.5959 190.104 32.0275L188.298 29.6325ZM181.641 31.265C180.452 31.265 179.365 31.18 178.378 31.0154L177.884 33.9746C179.057 34.17 180.311 34.265 181.641 34.265V31.265ZM178.378 31.0154C177.395 30.8517 176.6 30.6141 175.97 30.3231L174.712 33.0469C175.642 33.4759 176.707 33.7783 177.884 33.9746L178.378 31.0154ZM176.033 30.3542C175.441 30.0462 175.017 29.6938 174.718 29.3155L172.364 31.1745C172.965 31.9362 173.741 32.5438 174.649 33.0158L176.033 30.3542ZM174.749 29.3552C174.538 29.0693 174.411 28.7141 174.411 28.22H171.411C171.411 29.2859 171.704 30.2807 172.333 31.1348L174.749 29.3552ZM174.411 28.22C174.411 27.7055 174.518 27.3997 174.633 27.215L172.089 25.625C171.605 26.4003 171.411 27.2945 171.411 28.22H174.411ZM174.654 27.1805C174.869 26.8144 175.11 26.5421 175.368 26.3395L173.514 23.9805C172.932 24.4379 172.453 25.0056 172.068 25.6595L174.654 27.1805ZM173.716 26.4734C174.671 27.0001 175.739 27.4675 176.914 27.8802L177.908 25.0498C176.863 24.6825 175.951 24.2799 175.166 23.8466L173.716 26.4734ZM176.959 27.8954C178.275 28.3107 179.737 28.505 181.326 28.505V25.505C179.976 25.505 178.828 25.3393 177.863 25.0346L176.959 27.8954ZM181.326 28.505C182.358 28.505 183.367 28.3628 184.176 27.9074L182.706 25.2926C182.555 25.3772 182.155 25.505 181.326 25.505V28.505ZM184.143 27.9257C184.981 27.4819 185.706 26.6883 185.706 25.52H182.706C182.706 25.4889 182.711 25.4432 182.727 25.3902C182.744 25.3369 182.768 25.2927 182.791 25.2605C182.834 25.1991 182.848 25.2166 182.739 25.2743L184.143 27.9257ZM185.706 25.52C185.706 24.5806 185.26 23.79 184.498 23.2819L182.834 25.7781C182.843 25.7838 182.797 25.7542 182.754 25.6758C182.71 25.5956 182.706 25.531 182.706 25.52H185.706ZM184.498 23.2819C183.87 22.8629 183.014 22.6262 182.13 22.4684L181.602 25.4216C182.398 25.5638 182.743 25.7171 182.834 25.7781L184.498 23.2819ZM182.16 22.4741L180.81 22.2041L180.222 25.1459L181.572 25.4159L182.16 22.4741ZM180.804 22.2028C178.312 21.7159 176.643 20.9892 175.629 20.1399L173.703 22.4401C175.269 23.7508 177.5 24.6141 180.228 25.1472L180.804 22.2028ZM175.658 20.1645C174.789 19.3997 174.276 18.275 174.276 16.565H171.276C171.276 18.935 172.023 20.9603 173.675 22.4155L175.658 20.1645ZM174.276 16.565C174.276 15.679 174.465 14.9198 174.82 14.2559L172.173 12.8441C171.567 13.9802 171.276 15.231 171.276 16.565H174.276ZM174.82 14.2559C175.183 13.5751 175.693 13.0038 176.373 12.5348L174.669 10.0652C173.61 10.7962 172.769 11.7249 172.173 12.8441L174.82 14.2559ZM176.373 12.5348C177.082 12.0455 177.958 11.6445 179.024 11.3513L178.228 8.45869C176.894 8.82553 175.7 9.3545 174.669 10.0652L176.373 12.5348ZM179.015 11.3538C180.1 11.0625 181.318 10.91 182.676 10.91V7.91C181.095 7.91 179.612 8.08747 178.237 8.45623L179.015 11.3538ZM182.676 10.91C183.706 10.91 184.647 10.9935 185.505 11.1543L186.058 8.20569C184.995 8.00647 183.867 7.91 182.676 7.91V10.91ZM185.556 11.1631C186.443 11.2974 187.157 11.5049 187.721 11.7636L188.971 9.0364C188.095 8.6351 187.099 8.36263 186.006 8.19693L185.556 11.1631ZM187.721 11.7636C188.257 12.009 188.622 12.3043 188.872 12.6259L191.24 10.7841C190.65 10.0257 189.876 9.45097 188.971 9.0364L187.721 11.7636ZM188.898 12.6586C189.077 12.8753 189.186 13.1445 189.186 13.55H192.186C192.186 12.5155 191.876 11.5547 191.214 10.7514L188.898 12.6586ZM189.186 13.55C189.186 14.043 189.091 14.3929 188.955 14.6482L191.607 16.0518C192.012 15.2871 192.186 14.437 192.186 13.55H189.186ZM188.939 14.6792C188.786 14.9868 188.594 15.2277 188.367 15.4199L190.305 17.7101C190.858 17.2423 191.297 16.6732 191.623 16.0208L188.939 14.6792ZM190.131 15.293C189.73 15.0421 189.227 14.8468 188.703 14.6833L187.809 17.5467C188.245 17.6832 188.463 17.7879 188.541 17.837L190.131 15.293ZM188.783 14.7105C188.223 14.5006 187.624 14.3307 186.99 14.1972L186.372 17.1328C186.878 17.2393 187.329 17.3694 187.729 17.5195L188.783 14.7105ZM187.063 14.2144C186.439 14.0502 185.801 13.9194 185.149 13.8216L184.704 16.7884C185.251 16.8706 185.783 16.9798 186.299 17.1156L187.063 14.2144ZM185.16 13.8234C184.528 13.7235 183.923 13.67 183.351 13.67V16.67C183.739 16.67 184.185 16.7065 184.692 16.7866L185.16 13.8234ZM183.351 13.67C182.274 13.67 181.266 13.7952 180.447 14.1593L181.665 16.9007C181.926 16.7848 182.448 16.67 183.351 16.67V13.67ZM180.512 14.132C180.07 14.3041 179.614 14.5791 179.267 15.0218C178.906 15.4838 178.746 16.0239 178.746 16.565H181.746C181.746 16.5868 181.743 16.6343 181.722 16.6969C181.701 16.761 181.669 16.821 181.63 16.8707C181.553 16.9684 181.502 16.9659 181.6 16.928L180.512 14.132ZM178.746 16.565C178.746 17.4439 179.186 18.1491 179.836 18.6038L181.556 16.1462C181.558 16.1476 181.616 16.1891 181.67 16.2865C181.727 16.3896 181.746 16.4931 181.746 16.565H178.746ZM179.836 18.6038C180.409 19.0048 181.25 19.2464 182.092 19.4267L182.72 16.4933C182.336 16.411 182.045 16.3317 181.834 16.2595C181.608 16.1823 181.541 16.1353 181.556 16.1462L179.836 18.6038ZM182.076 19.4232L183.471 19.7382L184.131 16.8118L182.736 16.4968L182.076 19.4232ZM183.466 19.7371C186.256 20.3764 187.97 21.2129 188.874 22.094L190.968 19.946C189.472 18.4871 187.107 17.4936 184.136 16.8129L183.466 19.7371ZM188.901 22.1201C189.795 22.9487 190.266 24.0201 190.266 25.475H193.266C193.266 23.2699 192.507 21.3713 190.941 19.9199L188.901 22.1201Z" fill="#6E6458" mask="url(#path-1-outside-1_3066_3525)"/>
</g>
</svg>
